<svg xmlns="http://www.w3.org/2000/svg" viewBox="0 0 25 24" fill="none">
<path d="M19.64 12.94C19.68 12.64 19.7 12.33 19.7 12C19.7 11.68 19.68 11.36 19.63 11.06L21.66 9.47999C21.84 9.33999 21.89 9.06999 21.78 8.86999L19.86 5.54999C19.74 5.32999 19.49 5.25999 19.27 5.32999L16.88 6.28999C16.38 5.90999 15.85 5.58999 15.26 5.34999L14.9 2.80999C14.86 2.56999 14.66 2.39999 14.42 2.39999H10.58C10.34 2.39999 10.15 2.56999 10.11 2.80999L9.75 5.34999C9.16 5.58999 8.62 5.91999 8.13 6.28999L5.74 5.32999C5.52 5.24999 5.27 5.32999 5.15 5.54999L3.24 8.86999C3.12 9.07999 3.16 9.33999 3.36 9.47999L5.39 11.06C5.34 11.36 5.3 11.69 5.3 12C5.3 12.31 5.32 12.64 5.37 12.94L3.34 14.52C3.16 14.66 3.11 14.93 3.22 15.13L5.14 18.45C5.26 18.67 5.51 18.74 5.73 18.67L8.12 17.71C8.62 18.09 9.15 18.41 9.74 18.65L10.1 21.19C10.15 21.43 10.34 21.6 10.58 21.6H14.42C14.66 21.6 14.86 21.43 14.89 21.19L15.25 18.65C15.84 18.41 16.38 18.09 16.87 17.71L19.26 18.67C19.48 18.75 19.73 18.67 19.85 18.45L21.77 15.13C21.89 14.91 21.84 14.66 21.65 14.52L19.64 12.94ZM12.5 15.6C10.52 15.6 8.9 13.98 8.9 12C8.9 10.02 10.52 8.39999 12.5 8.39999C14.48 8.39999 16.1 10.02 16.1 12C16.1 13.98 14.48 15.6 12.5 15.6Z" fill="white"/>
</svg>